<?xml version="1.0" encoding="iso-8859-1"?>
<!-- Generator: Adobe Illustrator 16.0.0, SVG Export Plug-In . SVG Version: 6.00 Build 0)  -->
<!DOCTYPE svg PUBLIC "-//W3C//DTD SVG 1.1//EN" "http://www.w3.org/Graphics/SVG/1.1/DTD/svg11.dtd">
<svg version="1.1" id="Capa_1" xmlns="http://www.w3.org/2000/svg" xmlns:xlink="http://www.w3.org/1999/xlink" x="0px" y="0px"
	 width="322.121px" height="322.121px" viewBox="0 0 322.121 322.121" style="enable-background:new 0 0 322.121 322.121;"
	 xml:space="preserve">
<g>
	<g>
		<path d="M42.425,96.106h82.187c3.006,0,7.397-2.571,8.997-5.403l16.757-27.737H42.425c-23.426,0-42.419,18.994-42.419,42.419
			v14.035C8.966,105.427,24.609,96.106,42.425,96.106z"/>
		<path d="M279.707,45.733h-99.42c-5.856,0-12.93,4.137-15.81,9.243l-4.823,7.989l-19.242,31.851
			c-2.874,5.106-9.947,9.243-15.806,9.243H42.419C18.994,104.06,0,123.053,0,146.479v78.211v9.279
			c0,23.426,18.994,42.419,42.419,42.419h237.283c23.426,0,42.419-18.993,42.419-42.419v-9.279V105.385V88.152
			C322.126,64.727,303.133,45.733,279.707,45.733z M129.298,126.17c12.324,0,23.485,4.857,31.768,12.72
			c8.28-7.863,19.444-12.72,31.768-12.72c25.498,0,46.174,20.674,46.174,46.174c0,1.501-0.078,2.987-0.233,4.479
			c-0.248,2.636-0.767,5.194-1.444,7.68c-0.108,0.425-0.202,0.849-0.326,1.269c-0.104,0.32-0.218,0.642-0.321,0.963
			c-12.852,41.177-75.616,73.385-75.616,73.385s-62.764-32.208-75.624-73.374c-0.106-0.321-0.223-0.632-0.316-0.964
			c-0.124-0.419-0.212-0.849-0.329-1.268c-0.681-2.491-1.193-5.049-1.45-7.68c-0.147-1.491-0.228-2.978-0.228-4.479
			C83.125,146.844,103.801,126.17,129.298,126.17z"/>
		<path d="M150.497,235.744c8.347,0,15.534-4.955,18.775-12.091c1.574-3.448,1.803-9.683,1.812-13.474
			c0.042-12.138,0.042-36.086,0.042-36.086c26.662,0,25.057,15.975,21.939,25.146c-1.217,3.593-0.502,4.193,2.071,1.397
			c32.534-35.429-12.754-46.947-30.748-50.005c-3.743-0.637-6.801,2.12-6.801,5.911v39.216c-2.219-0.812-4.598-1.279-7.096-1.279
			c-11.395,0-20.63,9.238-20.63,20.63C129.867,226.507,139.103,235.744,150.497,235.744z"/>
	</g>
</g>
<g>
</g>
<g>
</g>
<g>
</g>
<g>
</g>
<g>
</g>
<g>
</g>
<g>
</g>
<g>
</g>
<g>
</g>
<g>
</g>
<g>
</g>
<g>
</g>
<g>
</g>
<g>
</g>
<g>
</g>
</svg>
